<svg id="Camada_1" data-name="Camada 1" xmlns="http://www.w3.org/2000/svg" viewBox="0 0 1004.19 1004.16"><defs><style>.cls-1{fill:#fefefe;}</style></defs><title>insta</title><g id="layer101"><path class="cls-1" d="M450.15,1064.37c-72.25-.71-106.77-2.32-136.93-6.24-49.15-6.33-93.75-21.94-128.45-45.05-25.51-17-52.54-43.62-70.38-69.49-22.48-32.47-39-77.52-45.94-125.33C62.29,776,60.33,700.6,61,527c.45-111.15,1-135.68,3.31-177.07,3.3-57.09,13.82-100.18,34.43-141,11.33-22.48,24.44-40.68,43.17-60C174.78,115,211.17,93.12,257.47,79.29c53.35-15.87,95-18.37,305.53-18.37,207.84,0,250.21,2.5,302.22,17.48,48.61,14.1,85.46,35.95,119.09,70.74,36.57,37.91,59.32,83.67,70.56,142.37,8.56,45,10.88,116.5,10.08,310-.81,169.58-2.86,206.6-14.37,252-15.79,62.62-45.49,109.72-93.3,147.9-42.73,34.16-100.63,54.32-170.83,59.5C734.71,1064.64,602.07,1066.07,450.15,1064.37Zm268.06-91.79c65.74-2,88.4-4.19,115.7-11.06,21.59-5.53,45.76-16.23,60.83-27,9.73-7,25.61-21.94,33.1-31,17.22-21.05,29.35-48,36.13-80.1,7.94-37.65,9.36-76.36,9.36-260.21,0-183-1.33-221.14-9-258.78-6.06-30-16.14-54.06-31.75-76-6.69-9.36-24.44-27.11-34.61-34.7C870.75,173.41,835.25,161.36,790,156.9c-39.7-3.92-120.69-5.35-265.38-4.73-148.44.72-184.83,2.23-219.44,9.19-44.7,9-77,26.67-103.3,56.56-14.72,16.77-25.07,35.32-33.1,59.32-13,39.43-15.61,73.86-16.59,225.68-.44,82.79.71,219.8,2.23,250.22,2.94,59.23,9.19,89.74,25.25,121.76,7.67,15.44,14.71,25.16,28.18,39.17,19.72,20.24,39.34,32.64,67,42.28,31.75,11,62.44,14.54,142.28,16.5C444.62,973.56,693.77,973.3,718.21,972.58Z" transform="translate(-60.91 -60.92)"/><path class="cls-1" d="M539.8,820a261.81,261.81,0,0,1-137.55-55.31c-11-8.74-31.94-29.53-40.32-40A260.68,260.68,0,0,1,306,586c-1.43-15.61-.63-45.58,1.78-61A258.4,258.4,0,0,1,533.56,306.59c15.7-1.79,43.17-1.79,58.87,0a258.47,258.47,0,0,1,153.08,74.3c35.59,35.69,60.48,82,70.2,130.51,4.1,20.25,4.64,26.85,4.55,52.18,0,20.34-.36,26-2,36.93-7.14,45.85-25.25,87.42-53.7,123.19-9.46,12-29,31.49-40.86,40.86C671.65,805.86,605.1,825.93,539.8,820Zm37-91c80.64-7,143.89-69.23,152.09-149.69,3.22-32.11-2.76-63.42-17.93-92.86a152.24,152.24,0,0,0-27-38.09c-26-27.21-56.74-43.53-95.1-50.4-8.92-1.6-42.72-1.6-51.73,0-37.11,6.6-66,21.5-91.88,47.46-16.15,16.14-26.41,30.86-34.79,50-39.61,89.74,6.69,194.64,99.46,225.51C532.49,728.43,553.72,731,576.82,729Z" transform="translate(-60.91 -60.92)"/><path class="cls-1" d="M823.38,355.2a67.58,67.58,0,0,1-23.82-8.11c-6.78-4-16.86-14.19-21-21.24a86,86,0,0,1-5.71-12.93c-2-6.07-2.32-8.65-2.32-17.84s.36-11.78,2.32-17.84c6.07-18.47,19.09-32,37.56-39.07,6.87-2.68,7.85-2.77,20.16-2.86,11.77,0,13.47.18,19.44,2.41a62.11,62.11,0,0,1,38,38.09c2.41,7,2.68,8.74,2.77,18.82s-.27,12-2.59,19.09A60.84,60.84,0,0,1,823.38,355.2Z" transform="translate(-60.91 -60.92)"/></g></svg>