<?xml version="1.0" encoding="utf-8"?>
<!-- Generator: Adobe Illustrator 24.0.1, SVG Export Plug-In . SVG Version: 6.00 Build 0)  -->
<svg version="1.1" id="Camada_1" xmlns="http://www.w3.org/2000/svg" xmlns:xlink="http://www.w3.org/1999/xlink" x="0px" y="0px"
	 viewBox="0 0 2000 2000" style="enable-background:new 0 0 2000 2000;" xml:space="preserve">
<style type="text/css">
	.st0{fill:#8F1D20;}
	.st1{fill:#FFFFFF;}
</style>
<g>
	<circle class="st0" cx="999.9" cy="1000" r="1000"/>
</g>
<g>
	<path class="st1" d="M999.9,1830c458.4,0,830-371.6,830-830s-371.6-830-830-830s-830,371.6-830,830S541.5,1830,999.9,1830z
		 M999.9,302.8c384.4,0,697.2,312.8,697.2,697.2s-312.8,697.2-697.2,697.2S302.7,1384.4,302.7,1000S615.4,302.8,999.9,302.8z"/>
	<path class="st1" d="M845.6,1391.5c45.8,0,83-37.1,83-83V677.7c0-45.8-37.1-83-83-83c-45.8,0-83,37.1-83,83v630.8
		C762.6,1354.3,799.8,1391.5,845.6,1391.5z"/>
	<path class="st1" d="M1177.6,1391.5c45.8,0,83-37.1,83-83V677.7c0-45.8-37.1-83-83-83s-83,37.2-83,83v630.8
		C1094.6,1354.3,1131.8,1391.5,1177.6,1391.5z"/>
</g>
</svg>
