<?xml version="1.0" encoding="utf-8"?>
<!-- Generator: Adobe Illustrator 24.0.1, SVG Export Plug-In . SVG Version: 6.00 Build 0)  -->
<svg version="1.1" id="Capa_1" xmlns="http://www.w3.org/2000/svg" xmlns:xlink="http://www.w3.org/1999/xlink" x="0px" y="0px"
	 viewBox="0 0 447.2 447.2" style="enable-background:new 0 0 447.2 447.2;" xml:space="preserve">
<style type="text/css">
	.st0{fill:#FFFFFF;stroke:#000000;stroke-width:6;stroke-miterlimit:10;}
</style>
<g>
	<g>
		<path class="st0" d="M398.9,195.7c-1.6-0.3-3.3-0.4-4.9-0.4H112.9l6.1-2.9c6-2.8,11.4-6.7,16.1-11.4l78.8-78.8
			c10.4-9.9,12.1-25.9,4.1-37.8c-9.3-12.7-27.1-15.5-39.8-6.2c-1,0.8-2,1.6-2.9,2.5L32.7,203.3c-11.1,11.1-11.2,29.2,0,40.3
			c0,0,0,0,0,0l142.6,142.6c11.1,11.1,29.2,11.1,40.3-0.1c0.9-0.9,1.7-1.8,2.4-2.8c8-11.9,6.2-27.9-4.1-37.8l-78.7-79
			c-4.2-4.2-9-7.7-14.3-10.4l-8.6-3.8h280c14.6,0.5,27.3-9.6,30.1-23.9C425,212.8,414.5,198.2,398.9,195.7z"/>
	</g>
</g>
</svg>
