<svg id="Camada_1" data-name="Camada 1" xmlns="http://www.w3.org/2000/svg" viewBox="0 0 329.87 329.56"><defs><style>.cls-1{fill:#fefefe;}</style></defs><title>github</title><g id="layer102"><path class="cls-1" d="M211.6,373.8c.4-1.3.9-17.1,1.1-35.1l.4-32.8,2.2.3c2.2.3,2.2.4,2.8,32.3.4,17.6,1,33.2,1.4,34.8.7,2.7.7,2.7-4,2.7C211,376,210.8,375.9,211.6,373.8Z" transform="translate(-46.13 -46.44)"/><path class="cls-1" d="M187.3,374.3c-2.7-.5-2.7-.2-.8-4.6,1.2-2.9,1.5-8.6,1.5-27.9,0-21.8.2-24.7,2-28.5,3.8-8.4,4.1-6,3.8,26-.2,23.5-.6,30.8-1.7,33-.8,1.5-1.7,2.6-2,2.6A28.45,28.45,0,0,0,187.3,374.3Z" transform="translate(-46.13 -46.44)"/><path class="cls-1" d="M237.6,366.9c-.3-3.4-.6-17.9-.6-32.2,0-23.7.1-25.8,1.6-24.6,3.3,2.7,3.8,6.5,4.5,32.4.3,14.3.9,27,1.4,28.3.7,2,.4,2.2-2.7,2.2h-3.5Z" transform="translate(-46.13 -46.44)"/><path class="cls-1" d="M157,367c-12.3-4.2-31-14-42-21.8-12.1-8.6-29.6-26.1-38.2-38.2-8.3-11.7-18.6-32.3-22.7-45.3-3.6-11.3-3.7-12.4-1.3-13.1,5.2-1.6,21.4-3.7,35.1-4.6,23.2-1.5,21.5-1.7,24.6,3.6,3.9,6.7,13.2,15.6,21.5,20.4,9,5.4,23.3,10.4,35.8,12.5,15.9,2.7,14.8,1.9,9.7,7-3.7,3.9-8.5,13.1-8.5,16.4,0,1.6-13.1,5.1-19.3,5.1-11.9,0-20-4.7-27.6-15.9-7.3-10.7-16.5-17-24.8-17.1-8.8,0-9.7,3-2.5,8.4,8.1,5.9,13.1,12.2,17.8,22.2,2.8,6.1,5.8,10.9,8.7,13.7,8.5,8.6,21.9,12.4,36.7,10.7,4.1-.5,8.1-.9,8.8-1,1.9,0,1.7,31.9-.2,36.5-.8,1.9-1.9,3.5-2.3,3.5S161.7,368.6,157,367Z" transform="translate(-46.13 -46.44)"/><path class="cls-1" d="M262.8,364.8c-1-1.7-1.4-10.1-1.8-31.8l-.5-29.5-3.1-6.6a47.15,47.15,0,0,0-6.8-10.3c-4.1-4-4-4.1,4.4-5.1,16-1.9,33.1-7.7,44.2-15.1a54.07,54.07,0,0,0,17.4-18.7l3-5.2,15.5.2c14.4.1,34.4,2.4,36.1,4.1,1.1,1.1-2.5,13.5-7.2,25.7-15.2,38.8-49.3,73.9-87.4,89.8C264.4,367.4,264.3,367.4,262.8,364.8Z" transform="translate(-46.13 -46.44)"/><path class="cls-1" d="M141.7,315.3a2.21,2.21,0,0,1,1-3.7,3.16,3.16,0,0,1,3.2.9c1.4,1.4,1.4,1.7.1,2.5C144.2,316.1,142.6,316.3,141.7,315.3Z" transform="translate(-46.13 -46.44)"/><path class="cls-1" d="M152.3,315.3c-1.8-.7-1.6-3,.3-3.7,2.4-.9,4.7,1.3,3.3,3C154.7,316.1,154.3,316.2,152.3,315.3Z" transform="translate(-46.13 -46.44)"/><path class="cls-1" d="M161.7,313.4c-1.7-1.8-.6-3.5,2.1-3.2,1.6.2,2.7.9,2.7,1.8C166.5,313.6,162.9,314.6,161.7,313.4Z" transform="translate(-46.13 -46.44)"/><path class="cls-1" d="M131.7,311.4c-1.7-1.8-.6-3.5,2.1-3.2,1.6.2,2.7.9,2.7,1.8C136.5,311.6,132.9,312.6,131.7,311.4Z" transform="translate(-46.13 -46.44)"/><path class="cls-1" d="M124.2,304.3c.2-1.2,1.2-1.8,2.8-1.8,3.6,0,3.3,2.9-.3,3.3C124.4,306.1,123.9,305.8,124.2,304.3Z" transform="translate(-46.13 -46.44)"/><path class="cls-1" d="M119.5,298.6c-1.5-1.1-1.5-1.3-.1-2.5,1.8-1.5,4.6-.8,4.6,1.3S121.5,300.1,119.5,298.6Z" transform="translate(-46.13 -46.44)"/><path class="cls-1" d="M114,290.5c0-2.1,2.7-3,4.5-1.5s1,3-2.1,3C114.9,292,114,291.4,114,290.5Z" transform="translate(-46.13 -46.44)"/><path class="cls-1" d="M108.4,284.9a1.88,1.88,0,0,1,.4-2.1,3.16,3.16,0,0,1,5,1.5c.3,1.2-.3,1.7-2.2,1.7A4.33,4.33,0,0,1,108.4,284.9Z" transform="translate(-46.13 -46.44)"/><path class="cls-1" d="M101.1,281c-1.7-1-.7-4,1.2-4a3.78,3.78,0,0,1,2.6,1.4c1,1.2.8,1.7-.6,2.5A3.61,3.61,0,0,1,101.1,281Z" transform="translate(-46.13 -46.44)"/><path class="cls-1" d="M48.9,242.3c-.6-3-.9-5.6-.7-5.8,2-2,40.3-3.2,52.6-1.7,4.9.6,5.5,1,6.7,4l1.4,3.2h-7.3c-11.3,0-31.9,1.9-42.2,3.9l-9.3,1.8Z" transform="translate(-46.13 -46.44)"/><path class="cls-1" d="M362.5,243.4c-3.8-.8-14.9-1.7-24.6-2l-17.6-.7,1-3.3c.7-2.3,1.6-3.4,3-3.4,1,0,8.3-.5,16.1-1.1,12.9-1,31.6-.2,33.2,1.4.3.2.2,2.8-.2,5.6C372.7,245.7,373.2,245.5,362.5,243.4Z" transform="translate(-46.13 -46.44)"/><path class="cls-1" d="M47.6,233.3c-.4-.9-1-7.6-1.3-14.9A164.09,164.09,0,0,1,64.7,135c23-44.7,65.1-76.1,115.5-86.2,14.5-2.9,44.1-3.2,58.3-.5,35.5,6.5,65.1,22,90,47.2,33.8,34.1,51.3,82.6,46.8,129.8l-.6,6.7-13.6-.6c-7.5-.3-19-.1-25.6.4s-12.1.9-12.2.8a80.89,80.89,0,0,1,1.4-8.6c1-5.5,1.5-14.7,1.6-26,.1-15.9-.2-18.2-2.4-25.5-2.9-9.6-8.2-19.3-13.9-25.8l-4.3-4.8,1.2-5.6c2.1-10.4.5-26.5-3.4-36.1-1.2-2.8-1.9-3.2-5.2-3.2-8.6,0-25,6.3-37.7,14.4l-5.7,3.7-8.2-1.6c-20.6-3.9-45.8-3.7-67,.5l-10.6,2.2-5.8-3.5c-15.9-9.6-30.6-15-38.9-14.5l-4.9.3-1.8,5.3a66.24,66.24,0,0,0-1.3,36.9l1.2,4.8-4.4,6A75.37,75.37,0,0,0,102,173.8c-3.9,14.8-2.9,38.7,2.6,57.3.4,1.5-2.1,1.7-26.3,2.1-14.7.3-27.5.8-28.4,1.2C48.8,234.9,48,234.5,47.6,233.3Z" transform="translate(-46.13 -46.44)"/></g></svg>