<?xml version="1.0" encoding="utf-8"?>
<!-- Generator: Adobe Illustrator 24.0.1, SVG Export Plug-In . SVG Version: 6.00 Build 0)  -->
<svg version="1.1" id="Camada_1" xmlns="http://www.w3.org/2000/svg" xmlns:xlink="http://www.w3.org/1999/xlink" x="0px" y="0px"
	 viewBox="0 0 2000 2000" style="enable-background:new 0 0 2000 2000;" xml:space="preserve">
<style type="text/css">
	.st0{fill:#8F1D20;}
	.st1{fill:#FFFFFF;}
</style>
<g>
	<circle class="st0" cx="1000" cy="1000" r="1000"/>
</g>
<path class="st1" d="M1000,1830c458.4,0,830-371.6,830-830s-371.6-830-830-830s-830,371.6-830,830S541.6,1830,1000,1830z
	 M1000,302.8c384.4,0,697.2,312.8,697.2,697.2s-312.8,697.2-697.2,697.2S302.8,1384.4,302.8,1000S615.5,302.8,1000,302.8z"/>
<path class="st1" d="M635.2,1398c0-265.7,0-530.2,0-796c243.2,132.7,485.8,265,729.6,398C1121.1,1132.9,878.5,1265.3,635.2,1398z"/>
</svg>
