<?xml version="1.0" encoding="utf-8"?>
<!-- Generator: Adobe Illustrator 24.0.1, SVG Export Plug-In . SVG Version: 6.00 Build 0)  -->
<svg version="1.1" id="Camada_1" xmlns="http://www.w3.org/2000/svg" xmlns:xlink="http://www.w3.org/1999/xlink" x="0px" y="0px"
	 viewBox="0 0 2000 2000" style="enable-background:new 0 0 2000 2000;" xml:space="preserve">
<style type="text/css">
	.st0{fill:#8F1D20;}
	.st1{fill:#FFFFFF;}
	.st2{fill:#FFFFFF;stroke:#FFFFFF;stroke-width:15;stroke-miterlimit:10;}
</style>
<g>
	<circle class="st0" cx="999.9" cy="1000" r="1000"/>
</g>
<path class="st1" d="M999.9,1830c458.4,0,830-371.6,830-830s-371.6-830-830-830s-830,371.6-830,830S541.5,1830,999.9,1830z
	 M999.9,302.8c384.4,0,697.2,312.8,697.2,697.2s-312.8,697.2-697.2,697.2S302.7,1384.4,302.7,1000S615.4,302.8,999.9,302.8z"/>
<path class="st2" d="M909.9,602c-14.1,70.3-28.2,140.5-42.3,210.8c-6.4,31.9-12.8,63.9-19.2,95.9c-3.6,0.5-4.8-2.7-6.6-4.5
	c-27.2-27.1-54.4-54.1-81.4-81.5c-4.6-4.7-6.9-5.8-11.2,0.4c-27.8,40.3-46.7,84.1-54,132.7c-8.3,55.6-2.3,109.7,18.6,162.1
	c16.5,41.6,40.9,77.9,73.2,108.8c31.4,30.2,67.5,53,108.6,67.9c60.4,21.9,121.8,26,183.8,9c110.2-30.3,184.5-100.3,219.3-208.8
	c43.5-135.3-12.7-281.4-134-356c-6-3.7-8.6-7.4-8.4-14.7c0.5-26.1,0.3-52.2,0.1-78.3c0-5.6,0.9-6.6,6.3-4.1
	c107.3,49.7,182.5,130,216.2,243.1c45.3,152.4,10.7,287.9-101.4,401.4c-59.7,60.5-133.4,96.7-217.7,107.6
	c-140.7,18.3-259.9-25.5-355.1-131.2c-51.8-57.5-82.8-125.7-93.4-202.2c-15.1-109.5,10.6-209.1,77.5-297.5c4.2-5.6,3.8-8.3-1-12.9
	c-27-26.5-53.7-53.4-80.4-80.2c-1.8-1.8-3.5-3.7-5.9-6.3c27.7-5.5,54.4-10.9,81.1-16.2c73.3-14.7,146.7-29.3,220-44
	c0.9-0.2,1.7-0.9,2.5-1.4C906.8,602,908.4,602,909.9,602z"/>
</svg>
